<?xml version="1.0" encoding="UTF-8" standalone="no"?>
<svg
   xmlns:dc="http://purl.org/dc/elements/1.1/"
   xmlns:cc="http://creativecommons.org/ns#"
   xmlns:rdf="http://www.w3.org/1999/02/22-rdf-syntax-ns#"
   xmlns:svg="http://www.w3.org/2000/svg"
   xmlns="http://www.w3.org/2000/svg"
   xmlns:sodipodi="http://sodipodi.sourceforge.net/DTD/sodipodi-0.dtd"
   xmlns:inkscape="http://www.inkscape.org/namespaces/inkscape"
   width="36px"
   height="36px"
   version="1.1"
   xml:space="preserve"
   style="fill-rule:evenodd;clip-rule:evenodd;stroke-linejoin:round;stroke-miterlimit:2;"
   id="svg21968"
   sodipodi:docname="DLXdataKnobB.svg"
   inkscape:version="1.0beta2 (368ca91, 2020-02-26)"><metadata
   id="metadata21974"><rdf:RDF><cc:Work
       rdf:about=""><dc:format>image/svg+xml</dc:format><dc:type
         rdf:resource="http://purl.org/dc/dcmitype/StillImage" /><dc:title /></cc:Work></rdf:RDF></metadata><defs
   id="defs21972">
        
        
        
    </defs><sodipodi:namedview
   pagecolor="#ffffff"
   bordercolor="#666666"
   borderopacity="1"
   objecttolerance="10"
   gridtolerance="10"
   guidetolerance="10"
   inkscape:pageopacity="0"
   inkscape:pageshadow="2"
   inkscape:window-width="1920"
   inkscape:window-height="1058"
   id="namedview21970"
   showgrid="false"
   inkscape:zoom="13.111111"
   inkscape:cx="8.3838345"
   inkscape:cy="13.889883"
   inkscape:window-x="-8"
   inkscape:window-y="-8"
   inkscape:window-maximized="1"
   inkscape:current-layer="svg21968"
   inkscape:document-rotation="0" />
    <g
   id="g1765"><path
     inkscape:transform-center-y="-1.4704745"
     inkscape:transform-center-x="0.20992748"
     d="m 28.829937,31.750365 -5.523626,-6.790977 5.086373,7.124369 -5.307591,-6.961128 4.860081,7.28062 -5.086318,-7.124408 4.628994,7.429687 -4.860025,-7.280658 4.393337,7.57142 -4.628936,-7.429722 4.153345,7.705682 -4.393278,-7.571454 3.909254,7.83234 -4.153285,-7.705715 3.661306,7.951268 -3.909194,-7.83237 3.409744,8.062349 -3.661245,-7.951297 3.154817,8.165473 -3.409681,-8.062375 2.896776,8.260539 -3.154753,-8.165497 2.635877,8.347453 -2.896712,-8.260562 2.372376,8.426129 -2.635812,-8.347473 2.106535,8.496489 -2.372312,-8.426147 1.838615,8.558464 -2.106469,-8.496505 1.568879,8.611994 -1.838548,-8.558479 1.297596,8.657024 -1.568813,-8.612006 1.025032,8.693511 -1.297529,-8.657034 0.751457,8.721418 -1.024965,-8.693519 0.477139,8.740718 -0.751388,-8.721424 0.202351,8.751393 -0.477072,-8.740722 -0.07264,8.75343 -0.202284,-8.751394 -0.347552,8.74683 0.0727,-8.75343 -0.622126,8.731596 0.347621,-8.746826 -0.896085,8.707746 0.622193,-8.731592 -1.169159,8.675304 0.896152,-8.70774 -1.441081,8.634298 1.169227,-8.675294 -1.711579,8.584772 1.441147,-8.634287 -1.980389,8.526774 1.711646,-8.584758 -2.247244,8.460361 1.980455,-8.526759 -2.511882,8.385599 2.24731,-8.460344 -2.77404,8.302561 2.511947,-8.385579 -3.033462,8.211329 2.774105,-8.302539 -3.289888,8.111994 3.033524,-8.211306 -3.543069,8.004654 3.289952,-8.111969 -3.792753,7.889413 3.543131,-8.004626 -4.038694,7.766387 3.792814,-7.889384 -4.2806492,7.635697 4.0387542,-7.766356 -4.51838,7.49747 4.280708,-7.635663 -4.7516513,7.351845 4.5184383,-7.497436 -4.9802343,7.198965 4.7517083,-7.351808 -5.2039012,7.038979 4.9802902,-7.198926 -5.4224338,6.872047 5.2039558,-7.038939 -5.6356137,6.698334 5.4224867,-6.872005 -5.8432329,6.518009 5.6356659,-6.69829 -6.0450852,6.331253 5.8432832,-6.517964 -6.2409717,6.138248 6.0451347,-6.331206 -6.4306997,5.939186 6.2410197,-6.1382 L 4.9567853,29.671956 11.387531,23.73282 4.5965963,29.256499 11.210721,23.522288 4.2496348,28.829933 11.040612,23.306307 3.9162433,28.39268 10.877371,23.085089 3.5967507,27.94517 10.721159,22.858853 3.2914725,27.487846 10.57213,22.627821 3.0007097,27.021158 10.430432,22.392222 2.7247495,26.545568 10.296204,22.152289 2.4638641,26.061544 10.169579,21.908258 2.218311,25.569564 10.050681,21.66037 1.9883325,25.070114 9.9396286,21.40887 1.7741556,24.563686 9.8365307,21.154005 1.5759916,24.050781 9.7414891,20.896028 1.3940362,23.531905 9.6545977,20.635193 1.2284688,23.007569 9.5759422,20.371757 1.079453,22.478292 9.5056002,20.105981 0.94713562,21.944595 9.4436411,19.838126 0.8316474,21.407005 9.3901262,19.568457 0.73310227,20.866053 9.3451082,19.29724 0.65159749,20.322272 9.3086315,19.024743 0.58721349,19.7762 9.2807321,18.751235 0.54001381,19.228374 9.2614376,18.476986 0.51004503,18.679337 9.250767,18.202265 0.49733673,18.129629 9.2487309,17.927345 0.50190144,17.579793 9.2553312,17.652497 0.52373467,17.030371 9.2705614,17.377992 0.56281486,16.481907 9.2944065,17.104101 0.61910345,15.934941 9.326843,16.831093 0.69254489,15.390013 9.3678389,16.55924 0.78306669,14.84766 9.4173537,16.288808 0.89057954,14.308419 9.4753385,16.020065 1.0149773,13.77282 9.5417361,15.753275 1.1561373,13.241394 9.616481,15.488703 1.3139201,12.714663 9.6994995,15.22661 1.48817,12.193149 9.7907095,14.967253 1.6787152,11.677365 9.8900211,14.71089 1.8853675,11.167821 9.9973363,14.457772 2.1079229,10.665019 10.112549,14.20815 2.346162,10.169456 10.235546,13.96227 2.5998495,9.681621 10.366205,13.720375 2.8687351,9.2019951 10.504398,13.482704 3.1525534,8.7310518 10.649989,13.24949 3.4510243,8.2692559 10.802832,13.020965 3.7638534,7.817063 10.962779,12.797353 4.0907318,7.3749194 11.129671,12.578876 4.4313369,6.9432615 11.303342,12.365748 4.7853328,6.5225153 11.483623,12.158181 5.1523698,6.1130959 11.670334,11.956379 5.532086,5.7154075 11.863292,11.760542 5.9241065,5.3298425 12.062306,11.570862 6.3280444,4.9567814 12.26718,11.387527 6.7435011,4.5965924 12.477712,11.210717 7.1700667,4.249631 12.693693,11.040608 7.6073201,3.9162395 12.914911,10.877367 8.0548298,3.5967469 13.141147,10.721155 8.5121542,3.2914687 13.372179,10.572126 8.9788419,3.0007059 13.607778,10.430428 9.4544325,2.7247457 13.847711,10.2962 9.9384565,2.4638603 14.091742,10.169575 10.430436,2.2183072 14.33963,10.050677 10.929886,1.9883287 14.59113,9.9396248 11.436314,1.7741518 14.845995,9.8365268 11.949219,1.5759878 15.103972,9.7414853 12.468095,1.3940324 15.364807,9.6545939 12.992431,1.228465 15.628243,9.5759383 13.521708,1.0794491 15.894019,9.5055964 14.055405,0.9471318 16.161874,9.4436373 14.592995,0.83164358 16.431543,9.3901224 15.133947,0.73309846 16.70276,9.3451044 15.677728,0.65159368 16.975257,9.3086277 16.2238,0.58720968 17.248765,9.2807283 16.771626,0.54001 17.523014,9.2614338 17.320663,0.51004122 17.797735,9.2507632 17.870371,0.49733291 18.072655,9.2487271 18.420207,0.50189763 18.347503,9.2553274 18.969629,0.52373085 18.622008,9.2705576 19.518093,0.56281104 18.895899,9.2944027 20.065059,0.61909963 19.168907,9.3268392 20.609987,0.69254107 19.44076,9.3678351 21.15234,0.78306288 19.711192,9.4173499 21.691581,0.89057572 19.979935,9.4753347 22.22718,1.0149735 20.246725,9.5417323 22.758606,1.1561335 20.511297,9.6164772 23.285337,1.3139163 20.77339,9.6994956 23.806851,1.4881662 21.032747,9.7907057 24.322635,1.6787114 21.28911,9.8900173 24.832179,1.8853636 21.542228,9.9973325 25.334981,2.1079191 21.79185,10.112545 25.830544,2.3461582 22.03773,10.235542 l 4.280649,-7.6356963 -4.038754,7.7663553 4.51838,-7.4974698 -4.280709,7.6356638 4.751652,-7.3518454 -4.518438,7.4974354 4.980234,-7.1989645 -4.751709,7.3518085 5.203902,-7.0389794 -4.98029,7.1989254 5.422434,-6.872047 -5.203957,7.038939 5.635614,-6.6983339 -5.422486,6.8720049 5.843233,-6.5180091 -5.635666,6.6982901 6.045085,-6.331253 -5.843283,6.517964 6.240971,-6.1382478 -6.045134,6.3312058 6.430699,-5.9391853 -6.241019,6.1381993 6.614081,-5.7342614 -6.430746,5.9391354 6.790935,-5.5236787 -6.614125,5.7342107 6.961086,-5.3076451 -6.790977,5.5236261 7.124369,-5.0863727 -6.961128,5.3075907 7.28062,-4.860081 -7.124408,5.086318 7.429686,-4.6289936 -7.280657,4.8600246 7.57142,-4.3933369 -7.429722,4.6289359 7.705682,-4.1533453 -7.571454,4.3932783 7.83234,-3.9092543 -7.705715,4.1532853 7.951268,-3.661306 -7.83237,3.909194 8.062348,-3.409744 -7.951296,3.661245 8.165473,-3.154817 -8.062375,3.409681 8.260539,-2.896776 -8.165497,3.154753 8.347453,-2.635877 -8.260562,2.896712 8.426129,-2.372376 -8.347473,2.635812 8.496489,-2.106535 -8.426147,2.372312 8.558464,-1.838615 -8.496505,2.106469 8.611993,-1.568879 -8.558478,1.838548 8.657024,-1.297596 -8.612006,1.568813 8.69351,-1.025032 -8.657034,1.297529 8.721418,-0.751457 -8.693518,1.024965 8.740718,-0.477139 -8.721424,0.751388 8.751393,-0.202351 -8.740722,0.477072 8.75343,0.07264 -8.751394,0.202284 8.746829,0.347552 -8.753429,-0.0727 8.731596,0.622126 -8.746827,-0.347621 8.707747,0.896085 -8.731592,-0.622193 8.675303,1.169159 -8.707739,-0.896152 8.634298,1.441081 -8.675294,-1.169227 8.584772,1.711579 -8.634287,-1.441147 8.526774,1.980389 -8.584759,-1.711646 8.460361,2.247244 -8.526758,-1.980455 8.385599,2.511882 -8.460344,-2.24731 8.302561,2.77404 -8.38558,-2.511947 8.21133,3.033462 -8.30254,-2.774105 8.111995,3.289888 -8.211306,-3.033524 8.004653,3.543069 -8.111968,-3.289952 7.889413,3.792753 -8.004626,-3.543131 7.766387,4.038694 -7.889384,-3.792814 7.635696,4.280649 -7.766355,-4.038754 7.49747,4.51838 -7.635664,-4.280708 7.351845,4.751651 -7.497435,-4.518438 7.198964,4.980234 -7.351808,-4.751708 7.038979,5.203901 -7.198925,-4.98029 6.872047,5.422434 -7.038939,-5.203956 6.698334,5.635614 -6.872005,-5.422487 6.518009,5.843233 -6.69829,-5.635666 6.331253,6.045085 -6.517964,-5.843283 6.138248,6.240972 -6.331206,-6.045135 5.939185,6.4307 -6.138199,-6.24102 5.734261,6.614081 -5.939135,-6.430746 5.523679,6.790935 -5.734211,-6.614125 z"
     inkscape:randomized="0"
     inkscape:rounded="0"
     inkscape:flatsided="false"
     sodipodi:arg2="0.91936363"
     sodipodi:arg1="0.90365567"
     sodipodi:r2="8.7515726"
     sodipodi:r1="17.503145"
     sodipodi:cy="17.999999"
     sodipodi:cx="18.000002"
     sodipodi:sides="200"
     id="path21976"
     style="fill:#000000;fill-opacity:0.90196073;stroke:#635073;stroke-width:1.00000036;stroke-opacity:1"
     sodipodi:type="star" /><circle
     cx="18"
     cy="18"
     r="16"
     style="fill:#302738;fill-opacity:1"
     id="circle21962" /><path
     d="m 19.026966,3.4504914 c 0.08721,-0.545067 -0.448,-1 -1,-1 -0.552,0 -1.091622,0.455657 -1,1 0.916842,5.4471189 -1.240433,10.6572046 -1.240433,10.6572046 0,0.552 1.688433,-0.510092 2.240433,-0.510092 0.552,0 2.186501,1.008161 2.186501,0.456161 0,0 -2.049411,-5.2100867 -1.186501,-10.6032736 z"
     style="fill:#c3c3c3;fill-opacity:1"
     id="path21964"
     inkscape:connector-curvature="0"
     sodipodi:nodetypes="sssssss" /></g>
</svg>
