<?xml version="1.0" encoding="UTF-8" standalone="no"?>
<svg
   xmlns:dc="http://purl.org/dc/elements/1.1/"
   xmlns:cc="http://creativecommons.org/ns#"
   xmlns:rdf="http://www.w3.org/1999/02/22-rdf-syntax-ns#"
   xmlns:svg="http://www.w3.org/2000/svg"
   xmlns="http://www.w3.org/2000/svg"
   xmlns:sodipodi="http://sodipodi.sourceforge.net/DTD/sodipodi-0.dtd"
   xmlns:inkscape="http://www.inkscape.org/namespaces/inkscape"
   width="10px"
   height="18px"
   viewBox="0 0 10 18"
   version="1.1"
   id="svg25550"
   sodipodi:docname="DLXSwitchLed_0.svg"
   inkscape:version="1.0beta2 (368ca91, 2020-02-26)">
  <metadata
     id="metadata25556">
    <rdf:RDF>
      <cc:Work
         rdf:about="">
        <dc:format>image/svg+xml</dc:format>
        <dc:type
           rdf:resource="http://purl.org/dc/dcmitype/StillImage" />
        <dc:title />
      </cc:Work>
    </rdf:RDF>
  </metadata>
  <defs
     id="defs25554" />
  <sodipodi:namedview
     pagecolor="#ffffff"
     bordercolor="#666666"
     borderopacity="1"
     objecttolerance="10"
     gridtolerance="10"
     guidetolerance="10"
     inkscape:pageopacity="0"
     inkscape:pageshadow="2"
     inkscape:window-width="1904"
     inkscape:window-height="982"
     id="namedview25552"
     showgrid="false"
     inkscape:zoom="16"
     inkscape:cx="-8.4465264"
     inkscape:cy="14.966515"
     inkscape:window-x="13"
     inkscape:window-y="62"
     inkscape:window-maximized="0"
     inkscape:current-layer="svg25550"
     inkscape:document-rotation="0" />
  <g
     id="g6582">
    <path
       d="m 5,0 c 2.77,0 5,2.23 5,5 v 8 C 10,15.77 7.77,18 5,18 2.23,18 0,15.77 0,13 V 5 C 0,2.23 2.23,0 5,0 Z"
       style="fill:#cccccc;fill-opacity:1"
       id="hole" />
    <path
       d="M 9.2224636,12.960001 A 4.2224636,4.2224636 0 0 1 5,17.182465 4.2224636,4.2224636 0 0 1 0.77753639,12.960001 4.2224636,4.2224636 0 0 1 5,8.7375374 4.2224636,4.2224636 0 0 1 9.2224636,12.960001"
       style="fill:#8b70a2;fill-opacity:1;stroke:#635073;stroke-width:1;stroke-opacity:1"
       id="led" />
    <path
       d="M 6.456022,11.7 A 1.456022,1.456022 0 0 1 5,13.156022 1.456022,1.456022 0 0 1 3.543978,11.7 1.456022,1.456022 0 0 1 5,10.243978 1.456022,1.456022 0 0 1 6.456022,11.7"
       style="opacity:0.7;fill:#cccccc;fill-opacity:1"
       id="hi" />
    <path
       d="M 5.4368066,11.07 A 0.43680659,0.43680659 0 0 1 5,11.506806 0.43680659,0.43680659 0 0 1 4.5631934,11.07 0.43680659,0.43680659 0 0 1 5,10.633193 0.43680659,0.43680659 0 0 1 5.4368066,11.07"
       style="opacity:1;fill:#f2f2f2;fill-opacity:1"
       id="circle25548" />
  </g>
</svg>
